<?xml version="1.0" encoding="UTF-8"?>
<svg id="Lag_2" data-name="Lag 2" xmlns="http://www.w3.org/2000/svg" viewBox="0 0 276.58 270.48">
  <defs>
    <style>
      .cls-1 {
        fill: #062afb;
        stroke: #031bf8;
        stroke-miterlimit: 10;
        stroke-width: .5px;
      }

      .cls-2 {
        fill: #f8f8f8;
      }

      .cls-2, .cls-3 {
        stroke-width: 0px;
      }

      .cls-3 {
        fill: #031bf8;
      }
    </style>
  </defs>
  <g id="Layer_4" data-name="Layer 4">
    <g>
      <path class="cls-1" d="M238.71,220.82c-20.83,6.26-50.03-22.09-64.44-9.26-8.07,7.18-2.25,20.02-13.62,27.46-6.92,4.53-16.83,5.52-29.64,6.81-7.48.75-14.2.81-20.67,4.83-.62.39-1.23.8-1.8,1.22-3.51,2.55-6.47,5.79-8.85,9.42-.86,1.31-1.32,2.31-1.78,2.75-9.44,9.11-14.65,6.86-57.47,1.44-60.75-7.69-45.74-194.29-.7-210.83,6.72-2.47,29.57-7.21,42.58,4.19,6.59,5.77,8.37,13.68,12.57,13.26,6.24-.61,3.65-18.23,15.36-26.53,5.67-4.02,13.79-4.31,30.02-4.89,8.09-.29,13.96.21,20.94-3.49,4.23-2.24,7.23-5.16,9.08-6.98,6.6-6.5,9.62-13.07,10.47-14.66,6.89-12.91,42.04-19.41,59.34-12.57,52.28,20.69,44.58,203.98-1.4,217.81Z"/>
      <path class="cls-2" d="M166.18,81.6c-.16.44-.32.86-.48,1.29-.36.95-1.06.79-2.47.35-1.02-.31-2.3-.71-3.68-.46-2.61.46-4.17,2.31-5.54,3.95-.52.63-1.02,1.22-1.53,1.68-6,5.33-15.4,6.35-22.2,5.54-11.22-1.35-15.37-9.73-18.7-16.47-1.81-3.64-3.36-6.79-5.68-7.95-1.58-.79-1.44-1.78-1.24-3.14.12-.85.26-1.8-.02-2.86,4.51-1.12,7.03-4.87,9.25-8.18,2.22-3.31,4.32-6.43,7.99-6.43,1.16,0,2.47-.05,3.86-.1,6.08-.22,14.4-.53,21.19,2.87,4.17,2.09,5.11,3.03,8.61,6.53l.42.42c.92.92,2.09.98,3.87,1.07,1.04.05,2.34.11,3.91.38,3.62.6,5.36,1.43,5.44,1.94,1.28,8.34-.99,14.31-3,19.57Z"/>
      <path class="cls-3" d="M121.62,74.35c-.6,1.9-1.27,3.79-1.78,5.72-.63,2.38-.68,4.88-.2,7.29.19.95.39,1.9.58,2.85.15.72,2.33.18,2.17-.58-.19-.94-.39-1.88-.58-2.82-.49-2.43-.41-4.92.27-7.31.52-1.82,1.13-3.62,1.7-5.43.23-.72-1.95-.43-2.17.28h0Z"/>
      <path class="cls-3" d="M117.98,50.65l-.5,2.68c-.25,1.34-.09,2.78.06,4.13.22,1.94.52,3.93,1.47,5.66.56,1.01,1.31,1.92,2,2.84.59.79,2.66-.06,1.99-.96s-1.34-1.71-1.88-2.64c-.95-1.63-1.2-3.65-1.4-5.5-.14-1.26-.25-2.56-.01-3.82l.48-2.57c.2-1.08-2.02-.81-2.2.17h0Z"/>
      <path class="cls-3" d="M124.69,51.63c-.32,1.58-.94,3.02-1.01,4.66-.05,1.26.14,2.53.47,3.75.37,1.37.76,2.75,1.49,3.98.22.37,1.58-.17,1.45-.39-.69-1.17-1.06-2.46-1.42-3.75s-.57-2.52-.54-3.81c.04-1.65.67-3.09.99-4.68.07-.35-1.36-.12-1.43.25h0Z"/>
      <path class="cls-3" d="M150.31,76.92c-.16,0-.31-.04-.46-.11-1.46-.73-2.89-2.88-2.89-4.34,0-.63.48-1.02.86-1.33.36-.29.58-.49.54-.74-.04-.25-.32-.54-.6-.82-.39-.39-.8-.8-.8-1.3,0-1.49,2.18-4.35,2.84-5.01.26-.26.58-.32.92-.18,1.38.57,2.86,4.36,2.86,6.59,0,2.79-1.28,6.21-2.63,7.05-.22.13-.44.2-.65.2ZM150.38,63.36c-.12,0-.23.05-.33.15-.7.7-2.74,3.44-2.74,4.76,0,.36.35.71.69,1.06.33.33.65.65.7,1.01.07.46-.3.77-.67,1.06-.36.29-.73.59-.73,1.06,0,1.33,1.36,3.36,2.7,4.03.24.12.49.1.77-.08,1.24-.77,2.47-4.11,2.47-6.75,0-2.22-1.51-5.79-2.65-6.26-.08-.03-.15-.05-.21-.05Z"/>
      <path class="cls-3" d="M139.46,75.43c-.17,0-.82-.18-2.15-.55-1.88-.52-4.44-1.23-6.25-1.55-1.94-.34-4.02-.11-6.19.69l-.12-.33c2.23-.82,4.38-1.06,6.37-.71,1.83.32,4.4,1.03,6.29,1.56.99.27,1.92.53,2.06.54,1.4,0,2.62,0,2.62-1.92,0-.12-.02-.15-.02-.15-.02-.02-.13-.01-.2-.01-.28,0-.69.01-1.12-.42-.31-.31-.46-.62-.44-.91.02-.4.35-.66.46-.75.18-.15.49-.19.93-.15.19.02.43-.08.65-.27.27-.24.45-.58.45-.84,0-.62-.5-1.15-.63-1.26-.28-.23-.55-.29-.79-.35-.27-.06-.52-.13-.66-.41-.2-.39-.09-1.09.21-1.44.19-.22.44-.29.7-.2.3.1.52.09.59-.02.1-.18-.05-.68-.53-1.11-.3-.26-1.37-1.03-2.8.04l-.21-.28c1.64-1.23,2.9-.33,3.24-.02.56.5.82,1.16.6,1.55-.09.16-.35.4-1,.18-.13-.04-.23-.01-.33.1-.22.26-.28.81-.16,1.06.06.13.18.16.43.22.26.06.58.14.92.42,0,0,.76.64.76,1.53,0,.37-.22.79-.56,1.1-.3.27-.62.4-.92.36-.47-.05-.63.03-.68.07-.21.17-.32.33-.33.49-.01.19.1.41.34.64.33.32.61.32.86.31.17,0,.33,0,.46.11.12.11.13.28.13.4,0,2.27-1.58,2.27-2.97,2.27Z"/>
      <g>
        <ellipse class="cls-3" cx="126.54" cy="56.41" rx="1.75" ry="2.09"/>
        <path class="cls-3" d="M126.54,58.85c-1.15,0-2.09-1.1-2.09-2.44s.94-2.44,2.09-2.44,2.09,1.1,2.09,2.44-.94,2.44-2.09,2.44ZM126.54,54.66c-.77,0-1.4.78-1.4,1.75s.63,1.75,1.4,1.75,1.4-.78,1.4-1.75-.63-1.75-1.4-1.75Z"/>
      </g>
      <g>
        <ellipse class="cls-3" cx="127.24" cy="83.63" rx="1.75" ry="2.09"/>
        <path class="cls-3" d="M127.24,86.08c-1.15,0-2.09-1.1-2.09-2.44s.94-2.44,2.09-2.44,2.09,1.1,2.09,2.44-.94,2.44-2.09,2.44ZM127.24,81.89c-.77,0-1.4.78-1.4,1.75s.63,1.75,1.4,1.75,1.4-.78,1.4-1.75-.63-1.75-1.4-1.75Z"/>
      </g>
      <path class="cls-3" d="M125.94,78.22c-.37,1.59-.82,3.12-.91,4.77-.14,2.68.21,5.38,1.53,7.75.21.38,1.18.01.93-.44-1.3-2.34-1.6-5.08-1.41-7.72.11-1.53.55-2.96.89-4.44.11-.47-.92-.35-1.02.09h0Z"/>
      <path class="cls-3" d="M150.8,77h-.35c0-.79.02-1.54.03-2.28.03-1.45.06-2.81-.03-4.34-.19-3.07-.12-7.24.03-7.45l.28.21-.14-.1.16.06c-.06.24-.21,3.75.01,7.26.1,1.54.06,2.92.03,4.37-.02.74-.03,1.48-.03,2.27Z"/>
      <path class="cls-2" d="M104.48,107.94c.16-.44.33-.86.49-1.28.37-.95,1.07-.78,2.47-.32,1.02.32,2.29.73,3.67.5,2.61-.43,4.19-2.27,5.58-3.89.53-.62,1.03-1.21,1.55-1.66,6.06-5.27,15.47-6.19,22.26-5.31,11.21,1.47,15.27,9.89,18.53,16.67,1.77,3.66,3.29,6.82,5.6,8.01,1.57.81,1.42,1.8,1.21,3.15-.13.85-.28,1.8-.01,2.86-4.52,1.07-7.08,4.8-9.34,8.08-2.25,3.29-4.39,6.38-8.06,6.35-1.16-.01-2.47.02-3.86.06-6.08.16-14.4.38-21.16-3.09-4.15-2.13-5.08-3.08-8.54-6.62l-.42-.42c-.91-.93-2.08-1-3.86-1.11-1.04-.06-2.34-.13-3.91-.42-3.61-.64-5.34-1.49-5.42-2-1.19-8.35,1.14-14.3,3.21-19.54Z"/>
      <path class="cls-2" d="M103.34,207.11c.14-.45.28-.87.42-1.31.31-.97,1.02-.84,2.45-.47,1.03.26,2.33.6,3.7.28,2.58-.59,4.05-2.51,5.34-4.21.49-.65.96-1.27,1.45-1.75,5.74-5.61,15.08-7.09,21.91-6.6,11.27.81,15.82,8.98,19.47,15.55,1.98,3.55,3.68,6.62,6.06,7.67,1.62.71,1.52,1.71,1.39,3.08-.08.85-.17,1.81.16,2.86-4.45,1.34-6.79,5.2-8.84,8.62-2.06,3.41-4,6.63-7.67,6.81-1.16.06-2.46.17-3.85.29-6.06.51-14.36,1.22-21.3-1.84-4.27-1.89-5.25-2.78-8.92-6.11l-.44-.4c-.96-.87-2.13-.88-3.92-.88-1.04,0-2.34,0-3.92-.19-3.64-.42-5.42-1.17-5.53-1.68-1.68-8.27.3-14.34,2.05-19.69Z"/>
      <g>
        <path class="cls-3" d="M149.2,116.12c.54-1.92,1.16-3.83,1.61-5.76.56-2.39.55-4.85,0-7.24-.22-.94-.44-1.89-.66-2.83-.1-.44-2.29.1-2.17.58.22.93.44,1.86.66,2.8.56,2.43.57,4.95-.04,7.37-.46,1.84-1.03,3.65-1.54,5.48-.11.4,1.99.14,2.14-.39h0Z"/>
        <path class="cls-3" d="M153.5,139.68l.42-2.69c.22-1.37.03-2.8-.17-4.16-.28-1.92-.63-3.93-1.69-5.59-.59-.92-1.3-1.76-1.98-2.61-.38-.47-2.46.26-2.04.78.67.84,1.4,1.67,1.96,2.6.97,1.61,1.3,3.56,1.57,5.4.19,1.32.38,2.7.17,4.02l-.41,2.59c-.1.65,2.06.27,2.16-.34h0Z"/>
        <path class="cls-3" d="M146.79,138.97c.27-1.59.86-3.05.87-4.68.01-1.27-.21-2.52-.58-3.73-.41-1.36-.84-2.73-1.6-3.94-.23-.37-1.58.18-1.45.39.72,1.15,1.13,2.43,1.53,3.71s.64,2.5.65,3.8c0,1.65-.58,3.11-.86,4.71-.06.36,1.37.12,1.43-.25h0Z"/>
        <path class="cls-3" d="M120.45,114.41c.16,0,.31.03.46.1,1.48.69,2.97,2.8,3.01,4.26.02.63-.45,1.03-.82,1.35-.35.3-.56.51-.52.76.04.25.34.53.63.8.4.38.82.77.83,1.28.04,1.49-2.06,4.41-2.7,5.09-.25.27-.57.34-.92.21-1.4-.53-2.99-4.27-3.05-6.5-.08-2.78,1.1-6.24,2.43-7.12.21-.14.43-.22.64-.22ZM120.77,127.96c.12,0,.23-.06.33-.16.68-.72,2.64-3.51,2.6-4.84-.01-.36-.37-.7-.72-1.03-.34-.32-.67-.63-.73-.99-.08-.46.28-.78.63-1.08.35-.3.71-.61.7-1.08-.04-1.33-1.46-3.32-2.81-3.95-.24-.11-.5-.08-.77.1-1.22.8-2.35,4.18-2.27,6.82.06,2.22,1.68,5.75,2.83,6.19.08.03.15.04.22.04Z"/>
        <path class="cls-3" d="M131.34,115.58c.17,0,.83.15,2.17.49,1.89.47,4.48,1.1,6.3,1.37,1.95.28,4.02,0,6.17-.87l.13.32c-2.21.88-4.34,1.18-6.35.89-1.83-.27-4.43-.91-6.33-1.37-1-.25-1.94-.48-2.08-.48-1.4.04-2.62.08-2.56,1.99,0,.12.03.15.03.15.02.02.13.01.2,0,.28-.02.69-.03,1.13.38.32.3.48.6.47.9-.01.4-.33.67-.44.76-.18.15-.48.21-.93.17-.19-.01-.43.09-.64.29-.26.25-.43.59-.42.85.02.62.53,1.14.67,1.24.29.22.56.28.8.33.27.06.52.11.67.39.21.39.13,1.09-.17,1.45-.18.22-.43.3-.7.22-.3-.09-.53-.08-.59.04-.1.18.07.68.56,1.09.3.25,1.4.99,2.8-.12l.22.27c-1.61,1.28-2.89.41-3.24.12-.58-.48-.85-1.14-.64-1.53.09-.16.34-.41,1-.21.13.04.23,0,.32-.11.22-.26.26-.82.13-1.06-.07-.13-.19-.16-.43-.21-.26-.05-.58-.12-.93-.39,0,0-.78-.62-.81-1.51-.01-.37.19-.79.53-1.11.29-.27.61-.41.91-.39.47.04.63-.05.67-.09.21-.18.31-.34.31-.5,0-.19-.12-.4-.36-.63-.33-.32-.62-.3-.87-.29-.17,0-.33.02-.46-.1-.12-.11-.14-.28-.14-.39-.07-2.27,1.51-2.31,2.9-2.35Z"/>
        <g>
          <ellipse class="cls-3" cx="144.8" cy="134.23" rx="1.75" ry="2.09" transform="translate(-3.81 4.23) rotate(-1.65)"/>
          <path class="cls-3" d="M144.73,131.78c1.15-.03,2.13,1.04,2.16,2.38s-.87,2.47-2.02,2.5-2.13-1.04-2.16-2.38.87-2.47,2.02-2.5ZM144.85,135.97c.77-.02,1.37-.82,1.35-1.78s-.68-1.73-1.45-1.7-1.37.82-1.35,1.78.68,1.73,1.45,1.7Z"/>
        </g>
        <g>
          <ellipse class="cls-3" cx="143.32" cy="107.03" rx="1.75" ry="2.09" transform="translate(-3.03 4.18) rotate(-1.65)"/>
          <path class="cls-3" d="M143.25,104.59c1.15-.03,2.13,1.04,2.16,2.38s-.87,2.47-2.02,2.5-2.13-1.04-2.16-2.38.87-2.47,2.02-2.5ZM143.37,108.78c.77-.02,1.37-.82,1.35-1.78s-.68-1.73-1.45-1.7-1.37.82-1.35,1.78.68,1.73,1.45,1.7Z"/>
        </g>
        <path class="cls-3" d="M144.77,112.4c.32-1.6.73-3.14.77-4.79.06-2.69-.37-5.37-1.75-7.7-.22-.37-1.18.02-.92.46,1.36,2.3,1.75,5.04,1.63,7.68-.06,1.53-.46,2.97-.76,4.47-.1.48.93.32,1.02-.11h0Z"/>
        <path class="cls-3" d="M119.96,114.34h.35c.02.78.03,1.53.03,2.27,0,1.45.02,2.82.16,4.34.28,3.07.33,7.24.18,7.44l-.29-.2.14.1-.16-.05c.05-.24.1-3.75-.22-7.26-.14-1.54-.15-2.91-.16-4.37,0-.74-.01-1.48-.03-2.27Z"/>
      </g>
      <path class="cls-2" d="M165.36,177.83c-.16.44-.32.86-.48,1.29-.36.95-1.06.79-2.47.35-1.02-.31-2.3-.71-3.68-.46-2.61.46-4.17,2.31-5.54,3.95-.52.63-1.02,1.22-1.53,1.68-6,5.33-15.4,6.35-22.2,5.54-11.22-1.35-15.37-9.73-18.7-16.47-1.81-3.64-3.36-6.79-5.68-7.95-1.58-.79-1.44-1.78-1.24-3.14.12-.85.26-1.8-.02-2.86,4.51-1.12,7.03-4.87,9.25-8.18,2.22-3.31,4.32-6.43,7.99-6.43,1.16,0,2.47-.05,3.86-.1,6.08-.22,14.4-.53,21.19,2.87,4.17,2.09,5.11,3.03,8.61,6.53l.42.42c.92.92,2.09.98,3.87,1.07,1.04.05,2.34.11,3.91.38,3.62.6,5.36,1.43,5.44,1.94,1.28,8.34-.99,14.31-3,19.57Z"/>
      <g>
        <path class="cls-3" d="M120.69,171.54c-.61,1.9-1.29,3.78-1.8,5.71-.64,2.38-.69,4.9-.23,7.31.18.95.38,1.9.57,2.85.16.82,2.35.28,2.17-.58-.19-.94-.38-1.88-.56-2.82-.47-2.43-.38-4.91.31-7.29.53-1.82,1.15-3.62,1.72-5.42.26-.83-1.93-.55-2.18.24h0Z"/>
        <path class="cls-3" d="M117.17,147.83l-.51,2.67c-.26,1.35-.1,2.79.04,4.14.21,1.94.5,3.94,1.44,5.67.55,1.02,1.3,1.93,1.99,2.85.61.81,2.67-.05,1.99-.97-.64-.86-1.33-1.71-1.87-2.64-.94-1.63-1.18-3.65-1.38-5.5-.13-1.26-.23-2.56,0-3.81l.49-2.57c.21-1.1-2.01-.85-2.21.15h0Z"/>
        <path class="cls-3" d="M123.86,148.81c-.34,1.64-.99,3.12-1.03,4.83-.03,1.3.17,2.59.52,3.84.37,1.34.76,2.65,1.46,3.86.25.43,1.66-.03,1.34-.58-.68-1.17-1.03-2.49-1.39-3.78s-.54-2.54-.48-3.83c.08-1.58.7-2.98,1.01-4.5.12-.58-1.34-.35-1.45.17h0Z"/>
        <path class="cls-3" d="M149.38,174.25c-.16,0-.31-.04-.46-.11-1.46-.74-2.88-2.89-2.87-4.36,0-.63.48-1.01.86-1.32.36-.29.58-.49.54-.74-.04-.25-.32-.54-.6-.82-.39-.39-.79-.8-.79-1.31,0-1.49,2.2-4.34,2.87-5,.26-.26.58-.32.93-.18,1.38.58,2.84,4.37,2.84,6.6-.01,2.79-1.31,6.2-2.66,7.03-.22.13-.44.2-.65.2ZM149.51,160.69c-.12,0-.23.05-.33.15-.71.7-2.76,3.42-2.76,4.75,0,.36.35.72.69,1.06.33.33.64.65.7,1.02.07.46-.31.77-.67,1.06-.36.29-.73.59-.73,1.05,0,1.33,1.35,3.37,2.68,4.04.24.12.49.1.77-.07,1.25-.76,2.49-4.1,2.5-6.74,0-2.22-1.48-5.8-2.62-6.28-.08-.03-.15-.05-.21-.05Z"/>
        <path class="cls-3" d="M138.53,172.71c-.17,0-.82-.18-2.15-.56-1.87-.53-4.44-1.25-6.25-1.58-1.93-.35-4.02-.12-6.2.66l-.12-.33c2.23-.81,4.38-1.04,6.38-.68,1.82.33,4.4,1.05,6.28,1.58.99.28,1.92.54,2.06.54,1.4,0,2.62.01,2.63-1.91,0-.12-.02-.15-.02-.15-.02-.02-.13-.01-.2-.01-.28,0-.69.01-1.12-.42-.31-.31-.46-.62-.44-.91.02-.4.35-.66.46-.75.18-.15.49-.19.93-.14.19.02.43-.08.65-.27.27-.24.45-.58.45-.84,0-.62-.49-1.15-.63-1.26-.28-.23-.55-.3-.79-.35-.27-.07-.52-.13-.65-.41-.19-.39-.09-1.09.21-1.44.19-.22.44-.29.7-.2.3.1.52.1.59-.02.1-.18-.05-.68-.52-1.11-.29-.26-1.37-1.04-2.8.03l-.21-.28c1.65-1.23,2.9-.32,3.24,0,.56.5.82,1.17.59,1.55-.09.16-.35.39-1,.17-.13-.04-.23-.01-.33.1-.23.26-.28.81-.16,1.05.06.13.18.16.43.22.26.06.58.14.92.42,0,0,.76.64.76,1.54,0,.37-.22.79-.57,1.1-.3.26-.62.39-.92.36-.47-.05-.63.03-.68.07-.21.17-.32.33-.33.49-.01.19.1.41.34.64.32.33.61.32.86.32.17,0,.33,0,.45.11.11.11.13.28.13.4,0,2.27-1.59,2.26-2.98,2.26Z"/>
        <g>
          <ellipse class="cls-3" cx="125.7" cy="153.63" rx="2.09" ry="1.75" transform="translate(-28.48 278.66) rotate(-89.75)"/>
          <path class="cls-3" d="M125.69,156.07c-1.15,0-2.09-1.11-2.08-2.45s.95-2.44,2.11-2.43,2.09,1.11,2.08,2.45-.95,2.44-2.11,2.43ZM125.71,151.88c-.77,0-1.4.78-1.4,1.74s.62,1.75,1.39,1.75,1.4-.78,1.4-1.74-.62-1.75-1.39-1.75Z"/>
        </g>
        <g>
          <ellipse class="cls-3" cx="126.28" cy="180.86" rx="2.09" ry="1.75" transform="translate(-55.13 306.34) rotate(-89.75)"/>
          <path class="cls-3" d="M126.27,183.3c-1.15,0-2.09-1.11-2.08-2.45s.95-2.44,2.11-2.43,2.09,1.11,2.08,2.45-.95,2.44-2.11,2.43ZM126.29,179.11c-.77,0-1.4.78-1.4,1.74s.62,1.75,1.39,1.75,1.4-.78,1.4-1.74-.62-1.75-1.39-1.75Z"/>
        </g>
        <path class="cls-3" d="M125,175.44c-.37,1.59-.84,3.11-.93,4.76-.15,2.68.19,5.38,1.49,7.76.21.38,1.18.02.93-.43-1.29-2.34-1.58-5.09-1.38-7.73.12-1.53.56-2.95.91-4.44.11-.47-.92-.35-1.02.08h0Z"/>
        <path class="cls-3" d="M149.87,174.33h-.35c0-.79.02-1.54.04-2.28.04-1.45.07-2.81-.01-4.34-.18-3.07-.08-7.24.07-7.44l.28.21-.14-.1.16.06c-.06.24-.22,3.75-.02,7.26.09,1.54.05,2.92.01,4.37-.02.74-.04,1.48-.04,2.27Z"/>
      </g>
      <g>
        <path class="cls-3" d="M148.1,211.81c.54-1.92,1.16-3.83,1.61-5.76.56-2.39.55-4.87,0-7.26-.22-.94-.44-1.89-.66-2.83-.12-.51-2.3.03-2.17.58.22.93.44,1.86.66,2.8.56,2.42.57,4.94-.04,7.36-.46,1.84-1.03,3.65-1.54,5.48-.14.49,1.98.21,2.15-.37h0Z"/>
        <path class="cls-3" d="M152.4,235.37l.42-2.69c.22-1.37.03-2.82-.17-4.18-.28-1.93-.64-3.91-1.69-5.59-.58-.93-1.3-1.77-1.99-2.62-.41-.52-2.5.22-2.03.81.67.84,1.4,1.67,1.96,2.58.98,1.61,1.3,3.56,1.57,5.4.19,1.31.37,2.69.16,4.01l-.41,2.59c-.12.74,2.06.36,2.16-.31h0Z"/>
        <path class="cls-3" d="M145.69,234.64c.27-1.59.86-3.04.88-4.68.01-1.27-.21-2.52-.58-3.73-.41-1.36-.84-2.73-1.6-3.94-.23-.36-1.57.19-1.45.39.72,1.15,1.13,2.43,1.53,3.71s.64,2.5.65,3.8c0,1.65-.58,3.11-.86,4.71-.06.34,1.37.11,1.43-.25h0Z"/>
        <path class="cls-3" d="M119.35,210.08c.16,0,.31.03.46.1,1.48.69,2.97,2.8,3.01,4.26.02.63-.45,1.03-.82,1.35-.35.3-.56.51-.52.76.04.25.34.53.63.8.4.38.82.77.83,1.28.04,1.49-2.06,4.41-2.7,5.09-.25.27-.57.34-.92.21-1.4-.53-2.99-4.27-3.05-6.5-.08-2.78,1.1-6.24,2.43-7.12.21-.14.43-.22.64-.22ZM119.67,223.64c.12,0,.23-.06.33-.16.68-.72,2.64-3.51,2.6-4.84-.01-.36-.37-.7-.72-1.03-.34-.32-.67-.63-.73-.99-.08-.46.28-.78.63-1.08.35-.3.71-.61.7-1.08-.04-1.33-1.46-3.32-2.81-3.95-.24-.11-.5-.08-.77.1-1.22.8-2.35,4.18-2.27,6.82.06,2.22,1.68,5.75,2.83,6.19.08.03.15.04.22.04Z"/>
        <path class="cls-3" d="M130.24,211.26c.17,0,.83.15,2.17.49,1.89.47,4.48,1.1,6.3,1.37,1.95.28,4.02,0,6.17-.87l.13.32c-2.21.88-4.34,1.18-6.35.89-1.83-.27-4.43-.91-6.33-1.37-1-.25-1.94-.48-2.08-.48-1.4.04-2.62.08-2.56,1.99,0,.12.03.15.03.15.02.02.13.01.2,0,.28-.02.69-.03,1.13.38.32.3.48.6.47.9-.01.4-.33.67-.44.76-.18.15-.48.21-.93.17-.19-.01-.43.09-.64.29-.26.25-.43.59-.42.85.02.62.53,1.14.67,1.24.29.22.56.28.8.33.27.06.52.11.67.39.21.39.13,1.09-.17,1.45-.18.22-.43.3-.7.22-.3-.09-.53-.08-.59.04-.1.18.07.68.56,1.09.3.25,1.4.99,2.8-.12l.22.27c-1.61,1.28-2.89.41-3.24.12-.58-.48-.85-1.14-.64-1.53.09-.16.34-.41,1-.21.13.04.23,0,.32-.11.22-.26.26-.82.13-1.06-.07-.13-.19-.16-.43-.21-.26-.05-.58-.12-.93-.39,0,0-.78-.62-.81-1.51-.01-.37.19-.79.53-1.11.29-.27.61-.41.91-.39.47.04.63-.05.67-.09.21-.18.31-.34.31-.5,0-.19-.12-.4-.36-.63-.33-.32-.62-.3-.87-.29-.17,0-.33.02-.46-.1-.12-.11-.14-.28-.14-.39-.07-2.27,1.51-2.31,2.9-2.35Z"/>
        <g>
          <ellipse class="cls-3" cx="143.7" cy="229.9" rx="1.75" ry="2.09" transform="translate(-6.57 4.24) rotate(-1.65)"/>
          <path class="cls-3" d="M143.63,227.46c1.15-.03,2.13,1.04,2.16,2.38s-.87,2.47-2.02,2.5-2.13-1.04-2.16-2.38.87-2.47,2.02-2.5ZM143.75,231.65c.77-.02,1.37-.82,1.35-1.78s-.68-1.73-1.45-1.7-1.37.82-1.35,1.78.68,1.73,1.45,1.7Z"/>
        </g>
        <g>
          <ellipse class="cls-3" cx="142.22" cy="202.71" rx="1.75" ry="2.09" transform="translate(-5.79 4.19) rotate(-1.65)"/>
          <path class="cls-3" d="M142.14,200.26c1.15-.03,2.13,1.04,2.16,2.38s-.87,2.47-2.02,2.5-2.13-1.04-2.16-2.38.87-2.47,2.02-2.5ZM142.27,204.45c.77-.02,1.37-.82,1.35-1.78s-.68-1.73-1.45-1.7-1.37.82-1.35,1.78.68,1.73,1.45,1.7Z"/>
        </g>
        <path class="cls-3" d="M143.67,208.08c.32-1.6.73-3.14.77-4.79.06-2.69-.37-5.37-1.75-7.7-.22-.37-1.18.02-.92.46,1.36,2.3,1.75,5.04,1.63,7.68-.06,1.53-.46,2.97-.76,4.47-.1.48.93.32,1.02-.11h0Z"/>
        <path class="cls-3" d="M118.86,210.02h.35c.02.78.03,1.53.03,2.27,0,1.45.02,2.82.16,4.34.28,3.07.33,7.24.18,7.44l-.29-.2.14.1-.16-.05c.05-.24.1-3.75-.22-7.26-.14-1.54-.15-2.91-.16-4.37,0-.74-.01-1.48-.03-2.27Z"/>
      </g>
    </g>
  </g>
</svg>