<?xml version="1.0" encoding="UTF-8"?>
<svg id="Flat" xmlns="http://www.w3.org/2000/svg" viewBox="0 0 800 800">
  <defs>
    <style>
      .cls-1 {
        fill: #001aff;
        stroke-width: 0px;
      }
    </style>
  </defs>
  <path class="cls-1" d="M400,62.5c-186.4,0-337.5,151.1-337.5,337.5s151.1,337.5,337.5,337.5,337.5-151.1,337.5-337.5c-.21-186.31-151.19-337.29-337.5-337.5ZM400,662.5c-144.97,0-262.5-117.53-262.5-262.5S255.03,137.5,400,137.5s262.5,117.53,262.5,262.5c-.16,144.91-117.59,262.34-262.5,262.5ZM237.5,337.5c0-27.61,22.39-50,50-50s50,22.39,50,50-22.39,50-50,50c-27.61,0-50-22.39-50-50ZM462.5,337.5c0-27.61,22.39-50,50-50s50,22.39,50,50-22.39,50-50,50c-27.61,0-50-22.39-50-50ZM562.4,493.77c-51.81,89.69-166.53,120.4-256.22,68.58-28.48-16.45-52.13-40.1-68.58-68.58-10.37-17.93-4.24-40.87,13.69-51.24,17.93-10.37,40.87-4.24,51.24,13.69,31.08,53.83,99.91,72.28,153.74,41.21,17.12-9.88,31.33-24.09,41.21-41.21,10.37-17.93,33.31-24.06,51.24-13.69s24.06,33.31,13.69,51.24Z"/>
</svg>