<?xml version="1.0" encoding="UTF-8"?>
<svg id="Flat" xmlns="http://www.w3.org/2000/svg" version="1.1" viewBox="0 0 800 800">
  <!-- Generator: Adobe Illustrator 29.4.0, SVG Export Plug-In . SVG Version: 2.1.0 Build 152)  -->
  <defs>
    <style>
      .st0 {
        fill: #2c4d9b;
      }
    </style>
  </defs>
  <path class="st0" d="M400,62.5c-186.4,0-337.5,151.1-337.5,337.5s151.1,337.5,337.5,337.5,337.5-151.1,337.5-337.5c-.2-186.3-151.2-337.3-337.5-337.5ZM400,662.5c-145,0-262.5-117.5-262.5-262.5S255,137.5,400,137.5s262.5,117.5,262.5,262.5c-.2,144.9-117.6,262.3-262.5,262.5ZM237.5,337.5c0-27.6,22.4-50,50-50s50,22.4,50,50-22.4,50-50,50-50-22.4-50-50ZM462.5,337.5c0-27.6,22.4-50,50-50s50,22.4,50,50-22.4,50-50,50-50-22.4-50-50ZM562.4,493.8c-51.8,89.7-166.5,120.4-256.2,68.6-28.5-16.5-52.1-40.1-68.6-68.6-10.4-17.9-4.2-40.9,13.7-51.2s40.9-4.2,51.2,13.7c31.1,53.8,99.9,72.3,153.7,41.2,17.1-9.9,31.3-24.1,41.2-41.2,10.4-17.9,33.3-24.1,51.2-13.7s24.1,33.3,13.7,51.2h0Z"/>
</svg>